<svg
    xmlns="http://www.w3.org/2000/svg"
    viewBox="0 0 120 71"
    stroke="none"
    fill-rule="nonzero"
    fill="currentColor"
    fill-opacity="1"
  ><path d="M39.047 54.012c0-.965.324-1.801.387-2.766.257-3.793 1.539-7.074 2.437-10.738.32-1.348 1.535-4.305 1.535-5.27 0-.195-.125-.386-.383-.386-1.668 0-11.925 1.476-12.375 1.863-.96 0-1.793.515-2.753.515-.13 0-.13-.066-.32-.066-.708.258-4.618 1.16-4.618 1.61 0 .19.063.386.063.644-.063.578-1.665.254-1.665 1.027 0 .516.961.77.961 1.094 0 .578-1.218.578-1.476 1.156.129.063.32.258.32.387 0 .45-.383.578-.445.965.254.32.512.836.512 1.285 0 1.094-1.606 1.992-1.606 2.7 0 .128.067.128.067.257l.511-.195.192.066c0 .258-.32.64-.32.965 0 .45.066.836.066 1.348 0 1.8-1.09 3.73-1.09 5.851 0 1.739.383 3.406.383 5.145 0 .258-.13.449-.13.707 0 .64.45 1.156.45 1.8l-.129.258c.067.383.578 1.09.899 1.286-1.473 0-2.114-2.38-2.63-3.215-.894-1.094-1.214-4.309-1.214-5.785 0-.583.062-1.16.062-1.801 0-.387 0-.836-.191-1.16 0-2.055.254-4.176.77-6.172l-.067-.254c.191-1.61.516-3.215.96-4.824.13-.387.77-1.993.77-2.25 0-.192-.19-.387-.382-.387-2.371 0-6.926 3.215-8.91 3.215-.836 0-4.235-.258-4.235-.965 0-.192 3.656-1.477 4.809-1.477 1.156 0 2.05-.965 3.207-1.351 1.09-.387 6.219-1.992 6.41-2.828a82.967 82.967 0 0 1 2.95-8.743c.64-.707.64-1.996 1.218-2.957.64-1.03 1.793-3.668 2.117-4.953.703-2.761 3.14-5.336 3.461-7.265.063-.707.64-.899.77-1.414.19-1.028 2.562-5.465 3.847-5.465.254 0 1.281.515 1.41.773-.066.13-.129.32-.129.578 0 .836.254 2.25.254 2.766 0 2.25-2.562 4.691-2.691 5.914-.191 1.223-1.41 2.441-1.54 3.148-.128 1.48-.831 2.766-1.667 3.989-.254 1.285-.703 2.508-1.535 3.535l-.578.898c0 .196.129.258.129.516 0 1.543-1.926 3.73-1.989 3.988-.129.64-1.41 3.664-1.988 3.793 0 .707.707.45.96.77 1.028-.45 2.31-1.028 3.59-1.028.196 0 .321.192.516.192.512 0 .895-.578 1.344-.578h.77c2.054-.707 8.015-1.285 10.453-1.285 3.972 0 2.113-1.223 3.203-2.766.066-1.094 1.219-4.113 1.668-5.336.45-.965.578-2.121.832-3.148.516-1.997 1.09-3.793 1.926-5.66.574-1.415.832-3.087 1.343-4.63.258-.77 1.282-3.085 1.282-3.855 0-.516.258-.902 1.027-.902 1.86 0 2.566 2.187 2.566 3.41 0 1.414-1.218 2.828-1.218 4.176 0 .128.062.257.062.386-.832 1.801-.96 4.18-2.242 5.785 0 1.032-.578 2.832-1.156 3.668v.512c0 1.285-1.09 2.7-1.219 3.922-.191 1.414-.703 2.637-1.41 3.922 0 .45 2.437.707 3.015.965.192.129.512.258.77.32 0 .195-.258 1.031-.578 1.031-.383 0-.578-.578-1.668-.578-2.691 0-2.563.899-2.82 3.278-.579 3.535-1.73 5.207-2.371 8.164l.128.386c-.195.899-.898 1.864-.898 2.766-.129 1.734-.898 2.828-1.027 4.5-.063 1.863-.641 1.93-.703 2.312-.13.774-.192 1.286-1.282 1.286-1.539 0-1.734-2.313-1.734-3.34Zm3.27-9.582c0 1.093-.641 2.187-.641 3.215 0 .195 0 .324.129.515.77-1.543.898-3.601 1.476-5.273 1.024-3.344 1.41-7.137 3.074-10.223.258-2.121 1.157-4.305 1.348-6.105 1.09-1.352 3.078-9.258 3.781-11.508.258-.067.32-.13.32-.258 0-.066-.062-.195-.062-.32 0-.196.063-.453.063-.645-.575.192-1.473 3.149-1.473 3.73-1.281 2.313-2.05 4.95-2.5 7.52-.129 1.094-.707 2.059-.898 3.152-.32 2.055-1.73 3.727-1.73 5.848-1.669 3.281-1.474 7.266-2.888 10.352ZM23.788 28.87v-.383c0-.386.258-.582.516-.902.32-.836.32-2.379.894-2.957l-.125-.129c-1.027 0-2.117 5.785-3.27 7.844v.258c0 .707-.706 1.156-.706 1.671 0 .063 0 .258.062.32-.383.13-1.281 3.989-1.281 4.567h.191c.387-.066.32-1.93.965-2.25 0-2.187 1.473-3.601 1.473-5.144.258-.192 1.281-2.637 1.281-2.895Zm-1.219 8.102c.325-1.094.965-3.793 1.606-4.63.77-1.027.77-2.378 1.344-3.406 0-.195 0-.324-.063-.324l-.129.067c-.45 1.222-1.86 3.406-1.86 4.562 0 .582-1.343 2.895-1.343 3.41 0 .192.063.387.254.387.066 0 .129-.066.191-.066Zm20.711 1.351c.192-.195.063-.386.192-.515a.352.352 0 0 0-.192.32Zm-22.89 7.52c-.125 0-.125.129-.125.258.125-.063.125-.192.382-.258Zm-1.602 2.187-.062.063h.191Zm2.438-13.308c0-.063 0-.13-.067-.13 0 .067.067.067.067.13Zm52.648 12.215a.586.586 0 0 0-.195.449l.195.129c0-.13.125-.258.254-.258.387 0 1.476-1.348 1.797-1.414h.129c-.13.258-.64 1.16-.64 1.414v.066s.062 0 .062.063l.062.066c-1.473 1.992-3.332 3.856-5.254 5.594h-.195c-.574.32-1.344.512-2.05.512-2.243 0-3.849-1.157-3.974-3.278 0-.258 0-.578-.195-.77l.195-.257.063.191v.13c.062 0 .129-.13.129-.192 0-.13-.067-.196-.067-.258l.067-.129c-.13-.066-.32-.258-.32-.387 0-.449.128-.964.253-1.476l.13.191c.066-.191.066-.386.128-.578l-.062-.066s-.13.066-.196.066c-.062 0-.062-.129-.062-.129.191-.066.258-.191.258-.32 0-.195-.067-.453-.067-.582.067-.125.067-.383.32-.383l.32.129c-.32.383-.062.77-.32 1.156l.516.45c0-.258.063-.516.063-.77v-.067l-.192.13-.066-.13c.066-.386.258-.835.516-1.156 0-.191-.32-.129-.32-.386 0-.641.32-1.477.573-2.122l-.19-.062-.259.254c-.062 0-.062-.063-.062-.192 0-.449.32-.836.32-1.093v-.13c0-.382.258-.835.387-1.218 0-.066-.067-.195-.067-.195 0-.836.45-1.801.77-2.508 0-.063-.063-.258-.129-.32.258-.258.516-.579.516-.965 0-.13-.13-.258-.13-.387s.063-.254.192-.32l.063.066-.063-.066c0-.45.129-.899.129-1.352l-.258-.062c-1.41 1.672-2.758 3.406-4.101 5.144-1.028 0-5.707 12.406-7.758 12.406-1.73 0-1.797-1.285-2.05-1.285-.13.063-.13.063-.196.063-.192 0-.32-.125-.32-.192 0-1.605.835-3.086.898-4.308.129-1.157.832-2.313.832-3.34v-.129c.195-.645.387-1.031.387-1.672v-.258c.703-1.156.32-2.058.77-2.765 0-.516 1.151-4.114 1.472-4.563 0-.066-.063-.129-.063-.129 0-.515.512-.965 1.09-.965.258 0 .703.32.961.512l.45.324c.19.45.386.899.386 1.414 0 .387-.195.641-.195 1.028 0 0 0 .129.066.258-.45.644-.32 1.543-.64 2.25 0 .066.062.129.062.191 0 .582-.32 1.223-.578 1.738 0 .258.066.512.066.77-.32.195-.386.578-.386.902 0 .192 0 .32.066.578.64-.32 2.5-3.793 2.95-3.988l-.067-.063c.32-.515 3.719-5.015 3.781-5.015l-.062-.063c.707-.644 1.41-1.414 1.921-2.187.516-.578.707-1.606 1.668-1.606.45 0 1.157.063 1.602.383.066-.062.324-.254.516-.254.703 0 .832.45.832.961 0 .645-.13 1.223-.258 1.801l-.192.645v.257c-.254.258-.64 1.864-.77 2.25l-.128.965v.063c0 2.058-2.5 6.879-2.5 9.515 0 .45-.254.774-.254 1.157 0 .066 0 .195.063.324-.063.191-.13.254-.13.449 0 .191.067.45.067.898 0 1.157 0 3.024.574 3.024.645 0 3.145-2.445 3.656-2.445h.063c.707 0 1.926-1.993 2.375-2.121Zm-20.773 2.12c0 .13.062.196.062.325.898-.453 1.156-3.086 1.219-3.988.066-.708 1.285-5.657 1.539-6.43v-.063c-.899 1.348-.578 1.801-.899 2.828-.253.516-.77 3.344-1.09 3.473-.382.965-.831 2.766-.831 3.856Zm13.527-13.5c0 .645-1.602 5.337-2.05 5.723 0-1.48 1.792-5.722 1.921-5.722Zm-1.54 7.844c0 .13.067.192.067.32 0 .258-.129 1.094-.515 1.094-.192 0-.13-.449-.192-.578.13-.32.32-.644.64-.836Zm1.282-3.277v-.195c.258-.258.387-.965.387-1.348-.387.45-.512 1.219-.512 1.863Zm-1.86 8.227v.257l.067.067c.192 0 .192-.582.192-.707v-.387c-.258.191-.258.512-.258.77Zm8.977-.707h-.062c0 .066-.32.257-.32.386l.19.13c.13-.192.13-.321.192-.516ZM56.18 37.937v-.062c-.192.063-.258.45-.258.578.191-.129.258-.258.258-.516Zm9.422 7.458.128.195c.067-.13.067-.258.067-.387l-.129-.066c0 .129 0 .195-.066.258Zm.257-3.665-.062-.062-.129.191.129.13Zm-.77 1.672c0-.129.067-.257.13-.386l.062.066c-.062.129-.062.191-.191.32Zm-10.128 3.024-.129-.067c0 .067-.062.13-.062.192Zm11.668-9.133.062-.063c0-.066 0-.066-.062-.128Zm-1.473 10.031-.066.13Zm-.644 2.828v.067h.066Zm2.437-12.023h-.062v.066c0-.066 0-.066.062-.066Zm-6.41 2.059h.129Zm33.031 9.964c-.066.387-.449.578-.898.645l-1.477.965h-.254c-.964.707-2.757 1.027-3.914 1.797-1.922.453-5.449 1.867-7.18 1.867-2.949 0-5.257-1.031-5.257-4.051 0-.258.578-.707.578-1.156l.066.191-.066.45.066.128c0-.707 4.614-6.172 4.743-6.172l.449.32.129-.062-.13-.386.063-.13c-.062-.19-.062-.257-.062-.449 0-.191.062-.32.191-.515l-.062-.258c-.32.129-.32.258-.578.258 0-.578 1.859-2.89 2.246-3.407l.32-.644c.125-.191.703-1.156.96-1.156l.192.258c.578 0 1.922-2.895 2.18-3.473 0-.578 1.348-1.734 1.348-3.664l-.13-.13c-.257.196-.64.13-.898.321-.578.324-.77.711-1.152.965-.965.578-2.18 1.094-3.145 1.543l-.253-.062c-.387-.387-1.73-.067-2.18-1.157.254-.453.96-1.031 1.41-1.031h-.066c0-.062.836-.45.964-.512.961-.515 3.91-3.343 6.602-3.343.191 0 .129.386.512.386.898 0 1.605.512 2.566.512.129 0 .32-.191.383-.191.129 0 .195.062.195.128 0 .063 0 .13-.066.192.066.191.066.32.066.516 0 .64-.195 1.222-.515 1.8v-.066c-.254 0-1.473 3.344-2.114 4.695a19.793 19.793 0 0 1-1.41 2.508l-.449.77c-.578.836-1.348 1.8-1.797 2.507l-.578.645c-.766.96-1.09 2.055-2.18 3.086-.894.898-1.601 2.12-2.18 3.277 0 1.285-2.304 2.25-2.304 3.856.062.066.125.257.32.257 1.73 0 3.91-1.218 5.13-1.218.062 0 .062 0 .062.062v.13c0 .062 0 .062.062.062.129 0 .965-.254.965-.383-.195 0-.258 0-.32.062l-.196-.062c.387-.324 1.028-.645 1.54-.645v.192l.128.195c.77-.129 1.348-.707 1.989-.707 1.41 0 2.82-1.156 4.039-1.156.32 0 .703 0 .703.383 0 .128-.254.257-.383.324v.062c0 .063 0 .13.129.13 0 .062-.067.062-.067.062v.066s.13-.45.899-.45Zm-16.093-3.02h-.063s-.066 0-.066-.066c.257-.449 1.988-3.02 2.246-3.086l.125.067c-.574 1.027-1.281 2.312-2.242 3.086Zm5.32-6.624-.063.129.192.195.129-.129v-.258Zm.129 2.574c-.063.063-.13.191-.13.191v.192l.259-.13Zm2.05-5.465.067.192.125-.13-.125-.128Zm-8.78 11.313-.192.129v-.063c0-.066 0-.066.062-.129Zm38.093-8.805.258.45c-1.668 2.12-3.848 3.984-6.027 5.527-.641.449-2.692 1.285-2.82 1.93l.32.128-.516.387.066.062c.832-.191 1.282-.77 1.989-1.093l.77.324c-.259.254-.641.578-1.09.836l.253.191c-.574.32-1.09.707-1.664 1.094-.387.258-4.039 1.543-4.426 1.543-3.652 0-6.601-1.8-6.601-4.5 0-1.93.125-4.5 1.152-6.238-.191.195.899-1.094.899-1.993 0-1.93 4.488-7.074 5.77-8.488.96-1.09 2.241-1.414 3.78-1.414 2.438 0 4.36 1.8 4.36 3.988 0 3.215-1.219 2.7-1.602 3.985-.77 2.379-5.387 4.566-7.95 4.566-.386 0-.706-.066-1.089-.066-.898 0-1.156 2.828-1.601 3.152v.258c0 .707-.196 2.312-.196 2.89 0 .645 0 2.508 1.028 2.508 6.28 0 8.847-6.62 13.335-8.742.512-.258 1.54-.773 1.602-1.285Zm-13.785-.707v.254c0 .129 0 .516.258.516.32 0 1.539-.645 1.86-.836.702 0 5-3.278 5.066-3.793.124-.774.574-1.543.574-2.317 0-.512-.13-2.828-1.024-2.828-1.925 0-4.297 5.723-5.449 6.559-.258.773-.707 1.863-1.285 2.445Zm8.848-6.688c-.192 0-.961 1.348-.961 1.543 0 .192.062.45.257.45a5.156 5.156 0 0 0 .832-1.801l.063-.129ZM95.953 43.594c.063-.32.258-.707.45-.965 0-.063 0-.32-.13-.32-.128 0-.32.836-.449.964 0 .13 0 .258.13.32Zm10.129 5.593-.062.067c.062 0 .128.062.128.062.254 0 .704-.32.832-.386l-.062-.13c-.45 0-.516.388-.836.388Zm6.54-8.164v-.062c.257-.258.64-.453.898-.711-.063.387-.579.71-.899.773Zm-16.606 4.5c0-.062.195-.257.195-.32 0-.066 0-.195-.066-.258-.254 0-.32.258-.32.387s.128.191.19.191Zm.644-3.984.192-.258-.067-.129-.254.13v.32Zm-.836 2.633c0-.063-.129-.254-.129-.32l-.062.257c0 .13 0 .192.062.32.067-.062.13-.128.13-.257Zm2.5-6.492c0-.063-.062-.063-.062-.13l-.258.13.066.195Zm-.191-.32c.129-.067.129-.196.191-.258l-.062-.13c-.13.13-.192.192-.258.387Zm-1.219 7.394.191-.195-.19-.063Zm17.055-4.695v.066c-.13.063-.32.063-.45.125.258-.125.13-.191.45-.191Zm-18.336 5.015h.062a.495.495 0 0 0-.125-.258l-.066.258Zm2.82-3.472v-.32c-.062.128-.129.19-.129.386Zm.258-3.727h-.129l.063.125c.066-.063.128-.063.128-.125Zm-2.246 4.113h.066l-.066-.066h.066l-.066-.063Zm0 0" /></svg>
