<svg xmlns="http://www.w3.org/2000/svg" viewBox="0 0 232 69" fill="none" class="link-toggler"><path d="M143.2 38c2.7-.6 4.4-2.6 4.4-5.2 0-3.1-2.4-5.3-5.8-5.3h-5.4c-.4 0-.7.3-.7.7 0 .4.3.7.7.7h5.2c2.6 0 4.4 1.6 4.4 3.9s-1.8 3.9-4.4 3.9h-5.2c-.4 0-.7.3-.7.7 0 .4.3.7.7.7h4.9l5.2 6.9c.2.3.4.4.7.4.4 0 .8-.3.8-.8 0-.2-.1-.4-.3-.7l-4.5-5.9ZM163.5 43.9h-10.3v-7.2h8.8c.4 0 .7-.3.7-.7 0-.4-.3-.7-.7-.7h-8.8v-6.4h10.1c.4 0 .7-.3.7-.7 0-.4-.3-.7-.7-.7h-10.8c-.4 0-.8.3-.8.8v16.3c0 .5.3.8.8.8h11.1c.4 0 .7-.3.7-.7-.1-.5-.4-.8-.8-.8ZM179.4 28.2c0-.4-.3-.7-.7-.7h-12.5c-.4 0-.7.3-.7.7 0 .4.3.7.7.7h5.5v15.8c0 .5.3.8.8.8s.8-.3.8-.8V28.9h5.5c.3 0 .6-.3.6-.7ZM186.8 28.1c-.2-.5-.5-.7-1-.7-.4 0-.7.2-1 .7l-7.1 16.2c-.1.2-.2.3-.2.5 0 .4.3.7.8.7.4 0 .6-.4.7-.5l2.3-5.3h8.9l2.3 5.3c.1.3.4.5.8.5s.8-.3.8-.8c0-.1 0-.3-.1-.4l-7.2-16.2Zm2.8 10.2H182l3.8-8.7 3.8 8.7ZM197.6 27.3c-.5 0-.8.3-.8.8v16.5c0 .5.3.8.8.8s.8-.3.8-.8V28.1c0-.4-.3-.8-.8-.8ZM214.5 43.9H205V28.1c0-.4-.3-.8-.8-.8-.4 0-.8.3-.8.8v16.5c0 .5.3.8.8.8h10.3c.4 0 .7-.3.7-.7.1-.5-.2-.8-.7-.8ZM111.2 29.4h-4.1v15.8h5.1v-11c.4-.5 1.5-1.1 2.5-1.1 1.5 0 2.4.8 2.4 2.3v9.7h5.1V34.8c0-3.8-1.7-5.7-5.3-5.7-2.7 0-4.2.8-5.3 2.1l-.4-1.8Zm-21.5 8.5c0 5.3 2 7.6 5.8 7.6 2.3 0 3.9-.8 4.8-2.1l.3 1.7h4.2v-15c-1.7-.5-3.6-1-7.2-1-5.1 0-7.9 3.1-7.9 8.8Zm9.9 2.4c-.5.5-1.2 1.1-2.5 1.1-1.4 0-2.1-1.3-2.1-3.7 0-3 .8-4.5 2.5-4.5 1 0 1.4.1 2.1.2v6.9ZM78 23.5h-5.1v21.7H78v-11c.4-.5 1.5-1.1 2.5-1.1 1.5 0 2.4.8 2.4 2.3v9.7H88V34.8c0-3.8-1.7-5.7-5.3-5.7-2.2 0-3.4.5-4.7 1.3v-6.9ZM63.2 37.2c0-2.3 1.3-3.7 3.8-3.7 1.3 0 2.4.4 3.4 1l.7-4.3c-1.4-.6-2.9-1-5.4-1-5.1 0-7.9 2.9-7.9 8.3s2.6 8.1 7.8 8.1c2.5 0 4.8-.8 5.8-1.4l-.7-4c-1.1.6-2.3 1.1-3.7 1.1-2.5-.2-3.8-1.7-3.8-4.1Zm-11.4 8h4.1V29.4h-5.1v10.9c-.4.5-1.5 1.1-2.5 1.1-1.5 0-2.4-.8-2.4-2.3v-9.7h-5.1v10.4c0 3.8 1.7 5.7 5.3 5.7 2.7 0 4.2-.8 5.3-2.1l.4 1.8Zm-17.6 0h5.9c-2.3-6.4-5.7-15.6-8.3-21.7h-6.7c-2.7 6.1-6 15.3-8.3 21.7h5.9c.5-1.5 1.1-3.4 1.7-5.5h8c.7 2 1.3 3.9 1.8 5.5Zm-3.1-9.7h-5.4c.8-2.6 1.7-5.3 2.7-7.9 1 2.6 1.9 5.3 2.7 7.9ZM129 17.5c.4 0 .8.3.8.8v32.4c0 .4-.3.8-.8.8M129 51.5c-.4 0-.8-.3-.8-.8V18.3c0-.4.3-.8.8-.8" fill="#E30613"/></svg>
