<svg xmlns="http://www.w3.org/2000/svg" viewBox="0 0 1280 352.71"><path fill="#002b6f" d="M381.94 92.75c-46.43 0-89.46 33.4-96.25 83.8-7.36 50.4 26.05 83.23 72.47 83.23s88.9-32.84 96.25-83.23c6.8-50.39-26.05-83.8-72.47-83.8m28.87 83.8c-3.96 27.75-24.34 43.6-46.99 43.6s-38.5-15.85-34.53-43.6 24.34-44.16 46.99-44.16 38.5 16.42 34.53 44.16M978.7 135.22h59.44l5.66-38.5h-59.44l3.4-26.62H961.7l-15.85 26.62-19.82 13.02-3.4 25.48h13.02l-9.62 66.8c-6.23 44.73 10.75 62.86 96.25 54.36l5.66-39.07c-53.79 6.8-60.58-2.83-57.75-23.2zM221.98 189.3L150.94 85.96c-6.23-9.06-14.15-11.32-28.87-11.32H97.72l-26.6 181.74h46.42l16.28-115.74 72.6 106.11c4.53 6.8 11.33 9.63 21.52 9.63h30.58l26.04-182.3h-46.43zM574.44 96.72c-32.23-2.52-41.87 4.8-59.67 27.6l-.34-27.6h-33.4l-22.65 159.66h43.03L513.25 173c4.65-28.15 19.92-35.23 54.96-32.7zM856.97 182.2c-3.97 30.02-18.12 40.78-37.94 40.78-22.08 0-31.7-10.76-27.74-40.77l11.89-85.49h-43.03l-12.46 87.75c-7.93 57.19 21.52 75.31 65.11 75.31 42.47 0 78.7-18.12 86.62-75.3l12.46-87.76h-43.03zM567.65 177.68c-7.36 53.78 22.08 81.53 62.28 81.53 17.18 0 35.99-5.56 49.26-18.87l.56 16.04h36.24l20.38-147.2C717.12 99.54 697.3 94.44 669 94.44c-48.12 0-93.41 27.74-101.34 83.23m110.97 38.5c-6.23 2.83-13.59 5.66-27.75 5.66-28.87 0-41.9-16.42-37.93-45.3 3.96-27.73 23.78-43.02 50.95-43.02 10.2 0 18.7 1.7 25.48 4.53z"></path> <path fill="#fcb731" d="M1135.53 92.75c-46.43 0-89.46 33.4-96.26 83.8-7.36 50.4 26.05 83.23 72.47 83.23s88.9-32.84 96.26-83.23c6.8-50.39-26.05-83.8-72.47-83.8m28.87 83.8c-3.96 27.75-24.35 43.6-47 43.6s-38.5-15.85-34.53-43.6 24.34-44.16 47-44.16 38.5 16.42 34.53 44.16"></path></svg>
