<?xml version="1.0" encoding="utf-8"?>
<!-- Generator: Adobe Illustrator 27.0.1, SVG Export Plug-In . SVG Version: 6.00 Build 0)  -->
<svg version="1.1" id="Calque_1" xmlns="http://www.w3.org/2000/svg" xmlns:xlink="http://www.w3.org/1999/xlink" x="0px" y="0px"
	 viewBox="0 0 518.7 195.8" style="enable-background:new 0 0 518.7 195.8;" xml:space="preserve">
<style type="text/css">
	.st0{fill:#646363;}
	.st1{fill:#472682;}
	.st2{fill:#FFFFFF;}
</style>
<g>
	<g>
		<g>
			<path class="st1" d="M100.8,142.4c-0.7,0-1.4-0.3-2-0.8c-6.4-6.5-10.7-14-13-22c-8-2.5-15.3-6.9-21.4-13.1
				c-10.5-10.7-10.5-28.2,0-39c9.8-10,24-9.4,36.3,1.6c0,0,0,0,0,0c0,0,0,0,0,0c0,0,0,0,0,0c12.4-11.1,26.8-11.5,36.8-1
				c4.2,4.5,5.3,10.8,2.9,16.5c-2.4,5.6-7.7,9.1-13.7,9.1c-7.9,0-13.3-5-24-15.1c-0.6-0.5-1.1-1.1-1.8-1.6
				c-7.3,8.6-11.3,18.8-11.4,29.4c0,3,0.2,6,0.8,8.9c3.4,0.8,6.8,1.2,10.4,1.2c12.2,0,23.7-4.9,32.4-13.7c1.1-1.1,2.8-1.1,3.9,0
				s1.1,2.8,0,3.9l-34.4,35.1C102.3,142.1,101.5,142.4,100.8,142.4z M92.1,121.1c1.9,5.2,4.8,10.1,8.7,14.6l16.1-16.5
				c-5.2,1.7-10.6,2.6-16.2,2.6c0,0,0,0,0,0C97.9,121.8,95,121.6,92.1,121.1z M80.8,65.9c-4.5,0-8.8,1.8-12.4,5.4
				c-8.4,8.6-8.4,22.7,0,31.3c4.7,4.8,10.2,8.4,16.2,10.7c-0.3-2.3-0.5-4.7-0.4-7.2c0.2-11.9,4.7-23.5,12.9-33.1
				C91.7,68.3,86,65.9,80.8,65.9z M104.8,72.8c0.6,0.6,1.2,1.1,1.7,1.6c9.9,9.3,14.5,13.6,20.2,13.6c4.6,0,7.5-3,8.7-5.8
				c1.2-2.8,1.4-7.1-1.8-10.5c-4.1-4.3-8.8-6.2-14.1-5.8C114.6,66.3,109.5,68.7,104.8,72.8z"/>
		</g>
	</g>
	<path class="st0" d="M216.9,106.1v-8c-0.1-5.8-3.7-8.7-10.9-8.7c-7.4,0-13.2,3.5-15.4,5l-0.1,0.1l0,0.2c0.3,1.6,1.3,2.7,2.7,3.1
		c1.5,0.4,3-0.3,4.1-1.6c0.2-0.3,0.5-0.6,0.7-1c1.4-1.8,3-4.2,7.2-4.2c3.1,0,4.6,1.8,4.6,5.5c0,3.2-2.5,4.2-7.3,5.1
		c-6.4,1.1-12.9,3.1-12.9,9.5c0,5.6,5.2,7.6,9.6,7.6c6.3,0,9.2-3.2,10.6-6.3c0.1,1.5,0.2,2.9,0.5,4.9l0,0.2h7.5l-0.1-0.3
		C216.9,112.8,216.9,110.2,216.9,106.1z M209.8,100.4v5.8c0,5.7-3.1,9.7-7.5,9.7c-3.2,0-5-2.1-5-5.9c0-3.8,2.1-6.1,6.5-7.3l0.7-0.2
		C206.8,102,208.6,101.6,209.8,100.4z"/>
	<path class="st0" d="M246.3,90.6l-0.2,0c-7-1.3-10.6,2.5-14.5,7.1c0.1-1.9,0.2-4,0.5-6.8l0-0.3h-8.2l0,0.3
		c0.6,4.5,0.6,7.2,0.6,10.9v4.7c0,3.7,0,6.4-0.6,10.9l0,0.3h8.2l0-0.3c-0.5-4.5-0.5-7.2-0.5-10.9V100c5.3-5.6,7.1-5.8,9.9-4.9
		c1.6,0.6,3,0.4,4-0.4c0.9-0.8,1.3-2.3,0.9-3.9L246.3,90.6z"/>
	<path class="st0" d="M289.4,73l0-0.3h-8.2l0,0.3c0.6,4.8,0.6,7.7,0.6,11.4v21.5c0,3.7,0,6.6-0.6,11.4l0,0.3h8.2l0-0.3
		c-0.5-4.8-0.5-7.7-0.5-11.4V84.4C288.9,80.6,288.9,77.7,289.4,73z"/>
	<path class="st0" d="M321.9,106.1v-8c-0.1-5.8-3.7-8.7-10.9-8.7c-7.4,0-13.2,3.5-15.4,5l-0.1,0.1l0,0.2c0.3,1.6,1.3,2.7,2.7,3.1
		c1.5,0.4,3-0.3,4.1-1.6c0.2-0.3,0.5-0.6,0.7-1c1.4-1.8,3-4.2,7.2-4.2c3.1,0,4.6,1.8,4.6,5.5c0,3.2-2.5,4.2-7.3,5.1
		c-6.4,1.1-12.9,3.1-12.9,9.5c0,5.6,5.2,7.6,9.6,7.6c6.3,0,9.2-3.2,10.6-6.3c0.1,1.5,0.2,2.9,0.5,4.9l0,0.2h7.5l-0.1-0.3
		C321.9,112.8,321.9,110.2,321.9,106.1z M314.8,100.4v5.8c0,5.7-3.1,9.7-7.5,9.7c-3.2,0-5-2.1-5-5.9c0-3.8,2.1-6.1,6.5-7.3l0.7-0.2
		C311.8,102,313.6,101.6,314.8,100.4z"/>
	<path class="st0" d="M356.4,106.1v-5.7c0-7.4-2.9-11-9-11c-5.5,0-8.8,3.3-10.8,6.4c0.1-1.7,0.2-3.3,0.4-5l0-0.3h-8.2l0,0.3
		c0.6,4.5,0.6,7.2,0.6,10.9v4.7c0,3.7,0,6.4-0.6,10.9l0,0.3h8.2l0-0.3c-0.5-4.5-0.5-7.2-0.5-10.9v-7.8c1.6-3.2,4.4-7,8.4-7
		c2.9,0,4.3,2.2,4.3,6.6v7.8c0,3.6,0,5.8-0.6,11.2l0,0.3h8.2l0-0.3C356.4,112,356.4,109.8,356.4,106.1z"/>
	<path class="st0" d="M449.8,90.8l0-0.2l-0.2,0c-7-1.3-10.6,2.5-14.5,7.1c0.1-1.9,0.2-4,0.5-6.8l0-0.3h-8.2l0,0.3
		c0.6,4.5,0.6,7.2,0.6,10.9v4.7c0,3.7,0,6.4-0.6,10.9l0,0.3h8.2l0-0.3c-0.5-4.5-0.5-7.2-0.5-10.9V100c5.3-5.6,7.1-5.8,9.9-4.9
		c1.6,0.6,3,0.4,4-0.4C449.8,93.9,450.2,92.4,449.8,90.8z"/>
	<path class="st0" d="M183.7,110c-2,4.1-5.1,6.2-9,6.2c-2.8,0-9.5-1.3-9.5-12.9c0-8.3,2.5-12.4,7.7-12.4c4.4,0,5.5,3,5.9,5.3
		c0.3,1.6,1.3,2.7,2.6,3c1.3,0.3,2.6-0.3,3.5-1.5l0.1-0.1l0-0.1c-1.2-3.9-5-8.1-12.3-8.1c-9.2,0-15.1,5.7-15.1,14.6
		c0,8.8,6,14.6,14.9,14.6c6,0,10.2-2.8,12.8-8.5l0.2-0.4h-1.5L183.7,110z"/>
	<path class="st0" d="M274.5,110c-2.1,4.2-5.5,6.4-9.7,6.4c-4.8,0-10.4-3.4-10.4-12.9c0-0.8,0-1.6,0.1-2.4h21.2l0-0.3
		c0-3.1-1.3-5.9-3.6-8c-2.5-2.3-5.9-3.5-9.9-3.5c-4.1,0-7.9,1.4-10.7,3.8c-3.1,2.7-4.7,6.4-4.7,10.8c0,4.4,1.6,8.2,4.7,10.8
		c2.9,2.5,6.9,3.8,11.3,3.8c6.3,0,10.7-2.9,13.3-8.5l0.2-0.4h-1.6L274.5,110z M254.7,99.7c0.8-5.6,3.4-8.7,7.4-8.7
		c2.3,0,6.1,1.1,6.1,8.7H254.7z"/>
	<path class="st0" d="M388.1,110c-2,4.1-5.1,6.2-9,6.2c-2.8,0-9.5-1.3-9.5-12.9c0-8.3,2.5-12.4,7.7-12.4c4.4,0,5.5,3,5.9,5.3
		c0.3,1.6,1.3,2.7,2.6,3c1.3,0.3,2.6-0.3,3.5-1.5l0.1-0.1l0-0.1c-1.2-3.9-5-8.1-12.3-8.1c-9.2,0-15.1,5.7-15.1,14.6
		c0,8.8,6,14.6,14.9,14.6c6,0,10.2-2.8,12.8-8.5l0.2-0.4h-1.5L388.1,110z"/>
	<path class="st0" d="M421,110c-2.1,4.2-5.5,6.4-9.7,6.4c-4.8,0-10.4-3.4-10.4-12.9c0-0.8,0-1.6,0.1-2.4h21.2l0-0.3
		c0-3.1-1.3-5.9-3.6-8c-2.5-2.3-5.9-3.5-9.9-3.5c-4.1,0-7.9,1.4-10.7,3.8c-3.1,2.7-4.7,6.4-4.7,10.8c0,4.4,1.6,8.2,4.7,10.8
		c2.9,2.5,6.9,3.8,11.3,3.8c6.3,0,10.7-2.9,13.3-8.5l0.2-0.4h-1.6L421,110z M401.2,99.7c0.8-5.6,3.4-8.7,7.4-8.7
		c2.3,0,6.1,1.1,6.1,8.7H401.2z"/>
</g>
</svg>
