<svg xmlns="http://www.w3.org/2000/svg" fill="#0082c3" viewBox="0 0 176 44"><path d="M140.8 22.1c0 3.3-2.7 5.9-5.9 5.9s-5.9-2.6-5.9-5.9c0-3.2 2.7-5.9 5.9-5.9 3.3 0 5.9 2.6 5.9 5.9zm-120-6.2H17v12.4h3.8c1.6 0 3.1-1.1 3.4-2.7.4-1.1.6-2.3.6-3.5 0-1.1-.2-2.4-.6-3.4-.3-1.6-1.8-2.8-3.4-2.8zM67.7 25H71v-4.5L67.7 25zM176 0v44L0 43.9V0h176zM44.2 33.6V28h-7v-3.2h6.3v-5.6h-6.3v-2.9h7v-5.7H30.8v7.9c-1.4-4.3-5.4-7.5-10-7.9H10.6v23h10.2c4.5-.4 8.5-3.6 9.9-7.9v7.9h13.5zm32.6-23.1h-6.5l-9.9 14.7c-1 1.6-2.8 2.5-4.7 2.5-3.1 0-5.6-2.5-5.6-5.6 0-3.1 2.5-5.6 5.6-5.6.3 0 .7-.1 1-.1 2.1 0 4.3.9 5.8 2.4l2.9-4.5c-2.3-2.4-5.7-3.9-9.1-3.9-6.3 0-12.1 5.3-12.1 11.6s5.2 11.5 11.5 11.5c3.1 0 6.1-1.3 8.3-3.5h6.8v3.5h5.9v-23zm15.9 0h-15v5.3h4.6v17.7h5.9V15.9h4.6v-5.4zm19.6 0h-5.9v8.6h-7v-8.6h-5.9v23h5.9v-9.1h7v9.1h5.9v-23zm53.1 0h-5.9v10.7l-8.1-10.7H146v8.4c-1.3-4.9-6-8.4-11.1-8.4-6.3 0-11.5 5.2-11.5 11.5 0 2 .6 4.1 1.6 5.9h-5.8V10.5h-6v23h13.7v-3.2c2.2 2 5.1 3.2 8.1 3.2 5.2 0 9.7-3.5 11.1-8.4v8.4h5.9V22.4l8.1 11.2h5.4l-.1-23.1z"/></svg>
