<?xml version="1.0" encoding="UTF-8"?>
<svg width="131px" height="141px" viewBox="0 0 131 141" version="1.1" xmlns="http://www.w3.org/2000/svg" xmlns:xlink="http://www.w3.org/1999/xlink">
    <!-- Generator: Sketch 48.2 (47327) - http://www.bohemiancoding.com/sketch -->
    <title>Logo EEDF couleur</title>
    <desc>Created with Sketch.</desc>
    <defs>
        <polygon id="path-1" points="5.5780091 0.0179279347 0.241197011 0.0179279347 0.241197011 8.77250183 5.5780091 8.77250183 5.5780091 0.0179279347"></polygon>
        <polygon id="path-3" points="0 140.273975 130.759994 140.273975 130.759994 0.0179279347 0 0.0179279347"></polygon>
        <linearGradient x1="-4.87779936%" y1="0%" x2="100%" y2="74.2735429%" id="linearGradient-5">
            <stop stop-color="#9ABE37" offset="0%"></stop>
            <stop stop-color="#32A2C6" offset="100%"></stop>
        </linearGradient>
    </defs>
    <g id="CUTS" stroke="none" stroke-width="1" fill="none" fill-rule="evenodd" transform="translate(-1141.000000, -31.000000)">
        <g id="Logo-EEDF-couleur" transform="translate(1141.000000, 31.000000)">
            <g id="Group-20" transform="translate(9.815729, 0.224341)">
                <path d="M21.6444686,61.5522688 C21.6277819,61.4161134 21.6115859,61.2802003 21.5963716,61.1442871 L16.7496098,57.103476 L21.6039787,53.0590309 C21.6285181,52.8417152 21.6552659,52.6246419 21.6837315,52.4087798 C22.6530348,45.082069 25.8468278,38.4463105 30.5706476,33.179374 L27.2988196,29.9484695 C21.8189432,35.9732246 18.1294559,43.6165815 17.0669032,52.06718 L10.8309703,57.0058415 L17.0669032,62.2042157 C18.1272474,70.63301 21.8012749,78.2581967 27.2571027,84.2761682 L30.5299123,81.0447792 C25.7624125,75.7114609 22.560767,68.9812173 21.6444686,61.5522688" id="Fill-1" fill="#97BE0D"></path>
                <path d="M105.27863,57.1398407 L99.0426975,52.2011792 C97.9830895,43.7719004 94.3097982,36.1457446 88.8534796,30.1280153 L85.5814062,33.3584353 C90.2828952,38.6176192 93.459756,45.2361766 94.4258692,52.5420522 C94.4555618,52.7586411 94.4818189,52.9757144 94.5061128,53.1925455 L99.3602364,57.2374752 L94.5144562,61.2782863 C94.4994872,61.4141995 94.4818189,61.5501126 94.4651321,61.686268 C93.5561956,69.05901 90.3972485,75.7451605 85.6893792,81.0595818 L88.962925,84.2907286 C94.3586315,78.2914118 97.9899606,70.7103181 99.0426975,62.3382149 L105.27863,57.1398407 Z" id="Fill-3" fill="#149FC7"></path>
                <path d="M53.5179089,21.2519191 C53.6555745,21.2354448 53.7932401,21.2196973 53.9316419,21.204192 L58.0248011,16.4200984 L62.1211503,21.2124292 C62.3417589,21.2364139 62.5594227,21.2628212 62.7800312,21.291409 C70.2098022,22.2490999 76.9370123,25.408535 82.2745606,30.0804579 L85.5468794,26.8500378 C79.4407595,21.4321675 71.6919773,17.7828638 63.1250541,16.732626 L58.1239399,10.5770454 L52.8575557,16.732626 C44.3762747,17.7724462 36.6969388,21.3577908 30.6207569,26.6855369 L33.8943026,29.9174106 C39.2770033,25.2694724 46.0503473,22.1504963 53.5179089,21.2519191" id="Fill-5" fill="#F5A700"></path>
                <g id="Group-9" transform="translate(55.213478, 0.000000)">
                    <mask id="mask-2" fill="white">
                        <use xlink:href="#path-1"></use>
                    </mask>
                    <g id="Clip-8"></g>
                    <path d="M2.91033923,0.0178552538 L0.241197011,5.98349665 C0.241197011,5.98349665 2.20360672,7.30047304 2.91033923,8.77250183 C3.61584479,7.30047304 5.5780091,5.98349665 5.5780091,5.98349665 L2.91033923,0.0178552538 Z" id="Fill-7" fill="#F5A700" mask="url(#mask-2)"></path>
                </g>
                <path d="M0.135653381,57.0059384 L6.1784618,59.6403757 C6.1784618,59.6403757 7.51192865,57.7036742 9.00391952,57.0059384 C7.51192865,56.3094139 6.1784618,54.3719856 6.1784618,54.3719856 L0.135653381,57.0059384 Z" id="Fill-10" fill="#97BE0D"></path>
                <path d="M115.973358,57.1398407 L109.930795,59.774278 C109.930795,59.774278 108.597329,57.8375765 107.106074,57.1398407 C108.597329,56.4433162 109.930795,54.5058879 109.930795,54.5058879 L115.973358,57.1398407 Z" id="Fill-12" fill="#149FC7"></path>
                <path d="M58.1238172,114.254146 L55.454675,108.287536 C55.454675,108.287536 57.4170847,106.971044 58.1238172,105.498773 C58.8293228,106.971044 60.7914871,108.287536 60.7914871,108.287536 L58.1238172,114.254146 Z" id="Fill-14" fill="#BC1320"></path>
                <path d="M62.7800557,92.9810527 C62.5594472,93.0091559 62.3417834,93.0362901 62.1209295,93.0600325 L58.0248256,97.8523633 L53.931421,93.0670583 C53.7932646,93.0527644 53.6553536,93.0370169 53.5179334,93.0205426 C46.0275503,92.119785 39.2370287,88.9840923 33.8467209,84.312654 L30.5734205,87.5445276 C36.6569642,92.8950471 44.3542138,96.4971083 52.8573348,97.5398358 L58.1237191,103.695659 L63.1250786,97.5398358 C64.8874928,97.3234892 66.6133434,96.9918224 68.2994404,96.5630056 C66.9321093,95.1597813 65.2607359,93.9418931 63.2651981,92.9088564 C63.1029932,92.9323565 62.942506,92.959733 62.7800557,92.9810527 Z M82.2537267,84.2096895 C79.4959975,86.6205122 76.3647798,88.6233532 72.9606849,90.1317224 C73.7599306,91.4719567 74.3508375,92.8165518 74.7400312,94.3443025 C78.7036228,92.6011743 82.3401051,90.2644861 85.5262909,87.4405941 L82.2537267,84.2096895 Z" id="Fill-16" fill="#BC1320"></path>
                <path d="M66.5122414,96.9770682 C67.3799519,96.784464 68.2994404,96.562303 68.2994404,96.562303 C66.9321093,95.1576251 65.2619629,93.9438555 63.2651981,92.9088806 C62.804595,92.9752625 62.535644,93.0111183 62.535644,93.0111183 C62.535644,93.0111183 65.5024483,95.6867414 64.9939935,97.265611 C64.9939935,97.265611 65.6941004,97.1587702 66.5122414,96.9770682" id="Fill-18" fill="#7E1C1D"></path>
            </g>
            <g id="Group-58" transform="translate(0.000000, 0.224341)">
                <path d="M2.76786392,121.093992 L1.7784384,121.093992 L2.2679979,119.16359 L3.94673302,119.16359 L2.76786392,121.093992 Z M7.36179707e-05,129.48257 L7.36179707e-05,121.845027 L4.8362835,121.845027 L4.8362835,123.519109 L1.74874581,123.519109 L1.74874581,124.7949 L4.38623231,124.7949 L4.38623231,126.468496 L1.74874581,126.468496 L1.74874581,127.8097 L4.8362835,127.8097 L4.8362835,129.48257 L7.36179707e-05,129.48257 Z" id="Fill-23" fill="#BC1320"></path>
                <path d="M8.50358725,129.546941 C7.67440351,129.546941 7.04472447,129.246769 6.52498159,128.688823 C5.77555065,127.884731 5.80597941,126.81172 5.80597941,125.663847 C5.80597941,124.516459 5.77555065,123.443933 6.52498159,122.639114 C7.04472447,122.081652 7.67440351,121.780511 8.50358725,121.780511 C9.85251387,121.780511 10.941569,122.585815 11.2014405,124.270071 L9.42283031,124.270071 C9.31289414,123.840285 9.0930218,123.454835 8.51364837,123.454835 C8.19390099,123.454835 7.9541518,123.593655 7.82384799,123.776084 C7.66434239,124.001637 7.55440622,124.270071 7.55440622,125.663847 C7.55440622,127.058592 7.66434239,127.327027 7.82384799,127.552095 C7.9541518,127.734039 8.19390099,127.874071 8.51364837,127.874071 C9.0930218,127.874071 9.31289414,127.487651 9.42283031,127.058592 L11.2014405,127.058592 C10.941569,128.742607 9.85251387,129.546941 8.50358725,129.546941" id="Fill-25" fill="#BC1320"></path>
                <polygon id="Fill-27" fill="#BC1320" points="12.0808317 129.48257 12.0808317 121.845027 13.8295039 121.845027 13.8295039 127.8097 16.8169211 127.8097 16.8169211 129.48257"></polygon>
                <path d="M20.3845461,124.741285 L19.744806,126.779255 L20.9840418,126.779255 L20.3845461,124.741285 Z M21.7732265,129.482497 L21.443418,128.345527 L19.2552465,128.345527 L18.9058065,129.482497 L17.0771361,129.482497 L19.6648078,121.844955 L21.0137344,121.844955 L23.6018969,129.482497 L21.7732265,129.482497 Z" id="Fill-29" fill="#BC1320"></path>
                <mask id="mask-4" fill="white">
                    <use xlink:href="#path-3"></use>
                </mask>
                <g id="Clip-32"></g>
                <polygon id="Fill-31" fill="#BC1320" mask="url(#mask-4)" points="24.281906 129.48257 26.0303328 129.48257 26.0303328 121.845027 24.281906 121.845027"></polygon>
                <path d="M30.1673192,123.529236 L29.1781391,123.529236 L29.1781391,125.074188 L30.1673192,125.074188 C30.6468176,125.074188 30.9265659,124.69867 30.9265659,124.301833 C30.9265659,123.904753 30.6468176,123.529236 30.1673192,123.529236 Z M31.026441,129.482521 L29.7678191,126.640459 L29.1781391,126.640459 L29.1781391,129.482521 L27.4294669,129.482521 L27.4294669,121.844979 L30.2473174,121.844979 C31.8259321,121.844979 32.6749927,123.046877 32.6749927,124.301833 C32.6749927,125.341895 32.075497,125.99675 31.5160005,126.296921 L33.0551068,129.482521 L31.026441,129.482521 Z" id="Fill-33" fill="#BC1320" mask="url(#mask-4)"></path>
                <polygon id="Fill-34" fill="#BC1320" mask="url(#mask-4)" points="33.9041674 129.48257 33.9041674 121.845027 38.7401319 121.845027 38.7401319 123.519109 35.6528396 123.519109 35.6528396 124.7949 38.2903261 124.7949 38.2903261 126.468496 35.6528396 126.468496 35.6528396 127.8097 38.7401319 127.8097 38.7401319 129.48257"></polygon>
                <path d="M42.5075561,129.546941 C41.0290619,129.546941 39.8202548,128.474172 39.8202548,126.80106 L39.8202548,121.844955 L41.5684362,121.844955 L41.5684362,126.758178 C41.5684362,127.466089 41.9281827,127.874071 42.5075561,127.874071 C43.0869295,127.874071 43.4667983,127.466089 43.4667983,126.758178 L43.4667983,121.844955 L45.2152251,121.844955 L45.2152251,126.80106 C45.2152251,128.474172 43.9865411,129.546941 42.5075561,129.546941" id="Fill-35" fill="#BC1320" mask="url(#mask-4)"></path>
                <path d="M48.5232731,129.546941 C47.4339726,129.546941 46.5449129,129.33229 45.8256653,128.538616 L46.9444131,127.337202 C47.3142207,127.734039 47.9637766,127.874071 48.5333343,127.874071 C49.2226439,127.874071 49.5519616,127.627198 49.5519616,127.187479 C49.5519616,127.005293 49.5122079,126.854601 49.4123328,126.736616 C49.3222735,126.640435 49.1725836,126.565089 48.9426502,126.532867 L48.0835285,126.40398 C47.4538494,126.307799 46.974351,126.082246 46.654849,125.728049 C46.3247951,125.363433 46.1652895,124.848368 46.1652895,124.194726 C46.1652895,122.799738 47.1439178,121.780511 48.7627769,121.780511 C49.7821404,121.780511 50.5512028,122.038286 51.161005,122.692898 L50.0621341,123.87275 C49.6120829,123.390149 49.022403,123.422371 48.7132075,123.422371 C48.1031599,123.422371 47.8538404,123.797646 47.8538404,124.130524 C47.8538404,124.226463 47.883533,124.366252 47.9934691,124.483995 C48.0835285,124.580903 48.2334637,124.676842 48.483274,124.708821 L49.3423958,124.837709 C49.9818905,124.934374 50.4415121,125.149025 50.7413826,125.470758 C51.1210059,125.867596 51.2709412,126.436444 51.2709412,127.144113 C51.2709412,128.699725 50.0216442,129.546941 48.5232731,129.546941" id="Fill-36" fill="#BC1320" mask="url(#mask-4)"></path>
                <polygon id="Fill-37" fill="#BC1320" mask="url(#mask-4)" points="52.3808057 129.48257 52.3808057 121.845027 57.2162794 121.845027 57.2162794 123.519109 54.1292325 123.519109 54.1292325 124.7949 56.766719 124.7949 56.766719 126.468496 54.1292325 126.468496 54.1292325 127.8097 57.2162794 127.8097 57.2162794 129.48257"></polygon>
                <path d="M60.4440348,129.546941 C59.3547342,129.546941 58.4659199,129.33229 57.7461816,128.538616 L58.8654201,127.337202 C59.2352277,127.734039 59.8847836,127.874071 60.4538505,127.874071 C61.1436509,127.874071 61.4734594,127.627198 61.4734594,127.187479 C61.4734594,127.005293 61.4332149,126.854601 61.3333399,126.736616 C61.2430352,126.640435 61.0933453,126.565089 60.8639026,126.532867 L60.0042901,126.40398 C59.3753473,126.307799 58.8951127,126.082246 58.5756107,125.728049 C58.2460476,125.363433 58.0862966,124.848368 58.0862966,124.194726 C58.0862966,122.799738 59.0649248,121.780511 60.6840294,121.780511 C61.7031475,121.780511 62.4724553,122.038286 63.0820121,122.692898 L61.9826504,123.87275 C61.5328446,123.390149 60.9436554,123.422371 60.6337238,123.422371 C60.0244124,123.422371 59.7748475,123.797646 59.7748475,124.130524 C59.7748475,124.226463 59.8042946,124.366252 59.9144762,124.483995 C60.0042901,124.580903 60.1544708,124.676842 60.4040357,124.708821 L61.2634028,124.837709 C61.9026522,124.934374 62.3622737,125.149025 62.6621443,125.470758 C63.0422584,125.867596 63.1917029,126.436444 63.1917029,127.144113 C63.1917029,128.699725 61.9426513,129.546941 60.4440348,129.546941" id="Fill-38" fill="#BC1320" mask="url(#mask-4)"></path>
                <path d="M75.7827807,121.093992 L74.793846,121.093992 L75.2826693,119.16359 L76.9616498,119.16359 L75.7827807,121.093992 Z M73.0152358,129.48257 L73.0152358,121.845027 L77.8507095,121.845027 L77.8507095,123.519109 L74.7634172,123.519109 L74.7634172,124.7949 L77.4011491,124.7949 L77.4011491,126.468496 L74.7634172,126.468496 L74.7634172,127.8097 L77.8507095,127.8097 L77.8507095,129.48257 L73.0152358,129.48257 Z" id="Fill-39" fill="#BC1320" mask="url(#mask-4)"></path>
                <path d="M81.5186022,129.546941 C80.6889277,129.546941 80.0592486,129.246769 79.5397511,128.688823 C78.7905656,127.884731 78.8202582,126.81172 78.8202582,125.663847 C78.8202582,124.516459 78.7905656,123.443933 79.5397511,122.639114 C80.0592486,122.081652 80.6889277,121.780511 81.5186022,121.780511 C82.8663018,121.780511 83.9563386,122.585815 84.2149831,124.270071 L82.4373545,124.270071 C82.3276637,123.840285 82.1075459,123.454835 81.5281725,123.454835 C81.2084251,123.454835 80.9684305,123.593655 80.8388629,123.776084 C80.6783757,124.001637 80.568685,124.270071 80.568685,125.663847 C80.568685,127.058592 80.6783757,127.327027 80.8388629,127.552095 C80.9684305,127.734039 81.2084251,127.874071 81.5281725,127.874071 C82.1075459,127.874071 82.3276637,127.487651 82.4373545,127.058592 L84.2149831,127.058592 C83.9563386,128.742607 82.8663018,129.546941 81.5186022,129.546941" id="Fill-40" fill="#BC1320" mask="url(#mask-4)"></path>
                <polygon id="Fill-41" fill="#BC1320" mask="url(#mask-4)" points="85.0947914 129.48257 85.0947914 121.845027 86.8434636 121.845027 86.8434636 127.8097 89.8313717 127.8097 89.8313717 129.48257"></polygon>
                <path d="M93.398604,124.741285 L92.7593547,126.779255 L93.9990813,126.779255 L93.398604,124.741285 Z M94.7877751,129.482497 L94.4587028,128.345527 L92.2697952,128.345527 L91.9201098,129.482497 L90.0919302,129.482497 L92.6798473,121.844955 L94.0285285,121.844955 L96.6159548,129.482497 L94.7877751,129.482497 Z" id="Fill-42" fill="#BC1320" mask="url(#mask-4)"></path>
                <polygon id="Fill-43" fill="#BC1320" mask="url(#mask-4)" points="97.2959639 129.48257 99.0441454 129.48257 99.0441454 121.845027 97.2959639 121.845027"></polygon>
                <path d="M103.181279,123.529236 L102.191608,123.529236 L102.191608,125.074188 L103.181279,125.074188 C103.660287,125.074188 103.940035,124.69867 103.940035,124.301833 C103.940035,123.904753 103.660287,123.529236 103.181279,123.529236 Z M104.03991,129.482521 L102.781043,126.640459 L102.191608,126.640459 L102.191608,129.482521 L100.443427,129.482521 L100.443427,121.844979 L103.261032,121.844979 C104.839646,121.844979 105.688952,123.046877 105.688952,124.301833 C105.688952,125.341895 105.088721,125.99675 104.52996,126.296921 L106.068576,129.482521 L104.03991,129.482521 Z" id="Fill-44" fill="#BC1320" mask="url(#mask-4)"></path>
                <polygon id="Fill-45" fill="#BC1320" mask="url(#mask-4)" points="106.918716 129.48257 106.918716 121.845027 111.754926 121.845027 111.754926 123.519109 108.667388 123.519109 108.667388 124.7949 111.304875 124.7949 111.304875 126.468496 108.667388 126.468496 108.667388 127.8097 111.754926 127.8097 111.754926 129.48257"></polygon>
                <path d="M115.521859,129.546941 C114.043365,129.546941 112.833822,128.474172 112.833822,126.80106 L112.833822,121.844955 L114.582249,121.844955 L114.582249,126.758178 C114.582249,127.466089 114.942486,127.874071 115.521859,127.874071 C116.100987,127.874071 116.480856,127.466089 116.480856,126.758178 L116.480856,121.844955 L118.229528,121.844955 L118.229528,126.80106 C118.229528,128.474172 117.000108,129.546941 115.521859,129.546941" id="Fill-46" fill="#BC1320" mask="url(#mask-4)"></path>
                <path d="M122.246223,123.529236 L121.257288,123.529236 L121.257288,125.074188 L122.246223,125.074188 C122.725721,125.074188 123.004979,124.69867 123.004979,124.301833 C123.004979,123.904753 122.725721,123.529236 122.246223,123.529236 Z M123.105345,129.482521 L121.846477,126.640459 L121.257288,126.640459 L121.257288,129.482521 L119.508371,129.482521 L119.508371,121.844979 L122.326221,121.844979 C123.90459,121.844979 124.754387,123.046877 124.754387,124.301833 C124.754387,125.341895 124.154892,125.99675 123.594904,126.296921 L125.134011,129.482521 L123.105345,129.482521 Z" id="Fill-47" fill="#BC1320" mask="url(#mask-4)"></path>
                <path d="M128.012719,129.546941 C126.923418,129.546941 126.033622,129.33229 125.314865,128.538616 L126.434104,127.337202 C126.803912,127.734039 127.452731,127.874071 128.022044,127.874071 C128.711599,127.874071 129.041652,127.627198 129.041652,127.187479 C129.041652,127.005293 129.001653,126.854601 128.901778,126.736616 C128.811474,126.640435 128.662029,126.565089 128.432341,126.532867 L127.573219,126.40398 C126.942804,126.307799 126.463797,126.082246 126.14454,125.728049 C125.81375,125.363433 125.65449,124.848368 125.65449,124.194726 C125.65449,122.799738 126.634099,121.780511 128.251977,121.780511 C129.271586,121.780511 130.040894,122.038286 130.649469,122.692898 L129.551334,123.87275 C129.101528,123.390149 128.512094,123.422371 128.201917,123.422371 C127.593096,123.422371 127.343041,123.797646 127.343041,124.130524 C127.343041,124.226463 127.372978,124.366252 127.482669,124.483995 C127.573219,124.580903 127.722418,124.676842 127.972229,124.708821 L128.83135,124.837709 C129.471091,124.934374 129.931203,125.149025 130.230583,125.470758 C130.610206,125.867596 130.759896,126.436444 130.759896,127.144113 C130.759896,128.699725 129.51109,129.546941 128.012719,129.546941" id="Fill-48" fill="#BC1320" mask="url(#mask-4)"></path>
                <path d="M41.4080717,134.675033 C41.2483207,134.4175 41.0085715,134.245974 40.5685815,134.245974 L39.7992737,134.245974 L39.7992737,138.536322 L40.5685815,138.536322 C41.0085715,138.536322 41.2483207,138.365038 41.4080717,138.107505 C41.5479459,137.892613 41.5977607,137.688864 41.5977607,136.390785 C41.5977607,135.104092 41.5479459,134.889441 41.4080717,134.675033 M42.6068177,139.458884 C42.1175036,139.984609 41.4279486,140.209677 40.6885788,140.209677 L38.0510923,140.209677 L38.0510923,132.571892 L40.6885788,132.571892 C41.4279486,132.571892 42.1175036,132.797687 42.6068177,133.322927 C43.435756,134.21351 43.3461875,135.189371 43.3461875,136.390785 C43.3461875,137.592683 43.435756,138.568302 42.6068177,139.458884" id="Fill-49" fill="#BC1320" mask="url(#mask-4)"></path>
                <polygon id="Fill-50" fill="#BC1320" mask="url(#mask-4)" points="44.5156335 140.209628 44.5156335 132.572086 49.351598 132.572086 49.351598 134.245925 46.2640603 134.245925 46.2640603 135.521958 48.9017922 135.521958 48.9017922 137.195555 46.2640603 137.195555 46.2640603 138.536516 49.351598 138.536516 49.351598 140.209628"></polygon>
                <polygon id="Fill-51" fill="#BC1320" mask="url(#mask-4)" points="54.4781326 134.245877 54.4781326 135.586596 57.1156191 135.586596 57.1156191 137.259708 54.4781326 137.259708 54.4781326 140.20958 52.7297058 140.20958 52.7297058 132.572038 57.5654249 132.572038 57.5654249 134.245877"></polygon>
                <path d="M61.382713,134.25627 L60.3935329,134.25627 L60.3935329,135.801222 L61.382713,135.801222 C61.8624568,135.801222 62.1422051,135.425462 62.1422051,135.028625 C62.1422051,134.63203 61.8624568,134.25627 61.382713,134.25627 Z M62.2418347,140.209556 L60.9832128,137.367251 L60.3935329,137.367251 L60.3935329,140.209556 L58.6448607,140.209556 L58.6448607,132.572013 L61.4624658,132.572013 C63.0413259,132.572013 63.8906319,133.773912 63.8906319,135.028625 C63.8906319,136.06893 63.2908908,136.723784 62.731885,137.023956 L64.2702552,140.209556 L62.2418347,140.209556 Z" id="Fill-52" fill="#BC1320" mask="url(#mask-4)"></path>
                <path d="M67.7080427,135.468344 L67.0687933,137.506314 L68.3075383,137.506314 L67.7080427,135.468344 Z M69.0959868,140.209556 L68.7669145,139.072586 L66.5782522,139.072586 L66.2290576,140.209556 L64.4003872,140.209556 L66.9880589,132.572013 L68.3372309,132.572013 L70.9249026,140.209556 L69.0959868,140.209556 Z" id="Fill-53" fill="#BC1320" mask="url(#mask-4)"></path>
                <polygon id="Fill-54" fill="#BC1320" mask="url(#mask-4)" points="75.6315694 140.209628 73.3540748 136.369659 73.3540748 140.209628 71.6049118 140.209628 71.6049118 132.572086 73.133957 132.572086 75.4119424 136.412298 75.4119424 132.572086 77.1603692 132.572086 77.1603692 140.209628"></polygon>
                <path d="M81.0283065,140.273975 C80.1991228,140.273975 79.5691983,139.973803 79.0497008,139.415857 C78.2997791,138.612007 78.3304533,137.538996 78.3304533,136.390882 C78.3304533,135.243251 78.2997791,134.170967 79.0497008,133.366148 C79.5691983,132.808686 80.1991228,132.507545 81.0283065,132.507545 C82.3769877,132.507545 83.4660429,133.312849 83.7256689,134.997106 L81.9473042,134.997106 C81.8368772,134.567562 81.6170049,134.181627 81.0376314,134.181627 C80.7186202,134.181627 80.4781349,134.32069 80.3483218,134.503118 C80.1885708,134.728671 80.0791255,134.997106 80.0791255,136.390882 C80.0791255,137.785626 80.1885708,138.054061 80.3483218,138.279129 C80.4781349,138.461558 80.7186202,138.600863 81.0376314,138.600863 C81.6170049,138.600863 81.8368772,138.214685 81.9473042,137.785626 L83.7256689,137.785626 C83.4660429,139.469399 82.3769877,140.273975 81.0283065,140.273975" id="Fill-55" fill="#BC1320" mask="url(#mask-4)"></path>
                <polygon id="Fill-56" fill="#BC1320" mask="url(#mask-4)" points="84.6056736 140.209628 84.6056736 132.572086 89.4416381 132.572086 89.4416381 134.245925 86.3536096 134.245925 86.3536096 135.521958 88.9920777 135.521958 88.9920777 137.195555 86.3536096 137.195555 86.3536096 138.536516 89.4416381 138.536516 89.4416381 140.209628"></polygon>
                <polygon id="Fill-57" fill="#BC1320" mask="url(#mask-4)" points="70.4366191 125.669904 67.9394976 121.844713 65.4421306 125.669904 67.9394976 129.49558"></polygon>
            </g>
            <path d="M67.8691433,32.8228989 C65.3104281,32.8228989 61.4734594,29.7550416 57.6990661,30.5523502 C53.3683663,31.4674016 52.1075358,36.602059 53.4903267,41.062723 C54.9312758,45.7065426 59.6855243,50.8063132 63.3369757,54.2043836 C58.8136421,52.1424289 52.4945209,49.8033179 47.7297205,50.1766551 C43.0213605,50.5536262 38.6486984,53.5965297 39.3802156,57.9094094 C40.0197104,61.6684612 44.3204723,64.0628095 45.2620461,66.4137917 C46.2043561,68.7628357 44.7283158,73.4141656 46.8659363,76.5876523 C49.3208502,80.226054 54.6198718,79.4914932 58.3132853,76.5823224 C62.3060787,73.4340317 65.4434312,66.8217733 67.2748009,62.1801341 C65.9624379,68.2649721 64.3521675,81.0504967 68.4283945,89.5560904 C73.4972372,91.1083103 80.794005,94.3399417 83.3968911,102.574194 C84.1146663,92.6520509 81.5061362,91.0038922 74.2935382,81.9863834 C70.0646766,76.6993385 68.8794273,69.1526471 68.680168,62.7177299 C70.5368132,67.320606 73.5860695,73.5539551 77.427946,76.5823224 C81.120378,79.4914932 86.4211173,80.226054 88.8748043,76.5876523 C91.0136517,73.4141656 89.5383476,68.7628357 90.4774675,66.4137917 C91.4214953,64.0628095 95.7207848,61.6684612 96.3600341,57.9094094 C97.0930237,53.5965297 92.7196255,50.5536262 88.0112655,50.1766551 C83.2452381,49.8028334 76.9243991,52.1436402 72.4003294,54.2053527 C76.0534985,50.8077668 80.8111826,45.7072694 82.2528678,41.062723 C83.6312416,36.602059 82.3745829,31.4674016 78.0421653,30.5523502 C77.6080647,30.4607723 77.1727371,30.4200711 76.7391272,30.4200711 C73.4007976,30.4200711 70.1370676,32.8228989 67.8691433,32.8228989" id="Fill-21" fill="url(#linearGradient-5)"></path>
        </g>
    </g>
</svg>